# WaveFront *.obj file (generated by Autodesk ATF)

mtllib 1x1 pyrimid flat base.mtl

g Solid1

v 0.000000 250.000000 -250.000000
v -250.000000 0.000000 0.000000
v 0.000000 250.000000 0.000000
v 0.000000 0.000000 -250.000000
v 0.000000 0.000000 0.000000
vt -35.355339 0.000000 0.000000
vt -0.000000 25.000000 0.000000
vt -35.355339 25.000000 0.000000
vt 35.355339 0.000000 0.000000
vt 0.000000 25.000000 0.000000
vt 0.000000 0.000000 0.000000
vt -12.500000 -12.500000 0.000000
vt 12.500000 12.500000 0.000000
vt -12.500000 12.500000 0.000000
vt 25.000000 25.000000 0.000000
vt 0.000000 0.000000 0.000000
vt 25.000000 0.000000 0.000000
vt 0.000000 0.000000 0.000000
vt 25.000000 0.000000 0.000000
vt 0.000000 25.000000 0.000000
vt 25.000000 25.000000 0.000000
vn -0.070711 0.070711 -0.000000
vn -0.070711 0.070711 -0.000000
vn -0.070711 0.070711 -0.000000
vn -0.070711 0.000000 -0.070711
vn -0.070711 0.000000 -0.070711
vn -0.070711 0.000000 -0.070711
vn 0.000000 -0.100000 0.000000
vn 0.000000 -0.100000 0.000000
vn 0.000000 -0.100000 0.000000
vn 0.000000 0.000000 0.100000
vn 0.000000 0.000000 0.100000
vn 0.000000 0.000000 0.100000
vn 0.100000 -0.000000 0.000000
vn 0.100000 -0.000000 0.000000
vn 0.100000 -0.000000 0.000000
vn 0.100000 -0.000000 0.000000
usemtl 191,191,191
f 1/1/1 2/2/2 3/3/3
f 2/4/4 1/5/5 4/6/6
f 2/7/7 4/8/8 5/9/9
f 3/10/10 2/11/11 5/12/12
f 5/13/13 4/14/14 3/15/15
f 3/15/15 4/14/14 1/16/16

# 5 vertices
# 16 texture params
# 16 normals
# 6 facets

# 1 groups
