# WaveFront *.obj file (generated by Autodesk ATF)

mtllib 1x1 inv pyrimid.mtl

g Solid1

v -250.000000 250.000000 0.000000
v 0.000000 250.000000 -250.000000
v -250.000000 0.000000 -250.000000
v 0.000000 250.000000 0.000000
v -250.000000 0.000000 0.000000
v 0.000000 0.000000 0.000000
v 0.000000 0.000000 -250.000000
vt 0.000000 0.000000 0.000000
vt -35.355339 0.000000 0.000000
vt -17.677670 -30.618622 0.000000
vt -12.500000 12.500000 0.000000
vt 12.500000 -12.500000 0.000000
vt 12.500000 12.500000 0.000000
vt 25.000000 25.000000 0.000000
vt 0.000000 0.000000 0.000000
vt 25.000000 0.000000 0.000000
vt 0.000000 0.000000 0.000000
vt 25.000000 0.000000 0.000000
vt 0.000000 25.000000 0.000000
vt 25.000000 25.000000 0.000000
vt 25.000000 0.000000 0.000000
vt 0.000000 25.000000 0.000000
vt 0.000000 0.000000 0.000000
vt 0.000000 0.000000 0.000000
vt 25.000000 0.000000 0.000000
vt 0.000000 25.000000 0.000000
vt 25.000000 25.000000 0.000000
vt 12.500000 12.500000 0.000000
vt -12.500000 12.500000 0.000000
vt 12.500000 -12.500000 0.000000
vt -12.500000 -12.500000 0.000000
vn -0.057735 0.057735 -0.057735
vn -0.057735 0.057735 -0.057735
vn -0.057735 0.057735 -0.057735
vn 0.000000 0.100000 0.000000
vn 0.000000 0.100000 0.000000
vn 0.000000 0.100000 0.000000
vn -0.100000 0.000000 0.000000
vn -0.100000 0.000000 0.000000
vn -0.100000 0.000000 0.000000
vn 0.000000 0.000000 0.100000
vn 0.000000 0.000000 0.100000
vn 0.000000 0.000000 0.100000
vn 0.000000 0.000000 0.100000
vn 0.000000 0.000000 -0.100000
vn 0.000000 0.000000 -0.100000
vn 0.000000 0.000000 -0.100000
vn 0.100000 -0.000000 0.000000
vn 0.100000 -0.000000 0.000000
vn 0.100000 -0.000000 0.000000
vn 0.100000 -0.000000 0.000000
vn 0.000000 -0.100000 0.000000
vn 0.000000 -0.100000 0.000000
vn 0.000000 -0.100000 0.000000
vn 0.000000 -0.100000 0.000000
usemtl 191,191,191
f 1/1/1 2/2/2 3/3/3
f 2/4/4 1/5/5 4/6/6
f 1/7/7 3/8/8 5/9/9
f 5/10/10 6/11/11 1/12/12
f 1/12/12 6/11/11 4/13/13
f 3/14/14 2/15/15 7/16/16
f 6/17/17 7/18/18 4/19/19
f 4/19/19 7/18/18 2/20/20
f 7/21/21 6/22/22 3/23/23
f 3/23/23 6/22/22 5/24/24

# 7 vertices
# 24 texture params
# 24 normals
# 10 facets

# 1 groups
