# WaveFront *.obj file (generated by Autodesk ATF)

mtllib 1x2 pyrimid.mtl

g Solid1

v 0.000000 250.000000 0.000000
v 250.000000 250.000000 -500.000000
v 250.000000 0.000000 0.000000
v 250.000000 250.000000 0.000000
vt 0.000000 0.000000 0.000000
vt -55.901699 0.000000 0.000000
vt -11.180340 -33.541020 0.000000
vt -25.000000 -12.500000 0.000000
vt 25.000000 12.500000 0.000000
vt -25.000000 12.500000 0.000000
vt 0.000000 0.000000 0.000000
vt 25.000000 25.000000 0.000000
vt 0.000000 25.000000 0.000000
vt 0.000000 25.000000 0.000000
vt 50.000000 0.000000 0.000000
vt 50.000000 25.000000 0.000000
vn -0.066667 -0.066667 -0.033333
vn -0.066667 -0.066667 -0.033333
vn -0.066667 -0.066667 -0.033333
vn 0.100000 0.000000 0.000000
vn 0.100000 0.000000 0.000000
vn 0.100000 0.000000 0.000000
vn 0.000000 0.000000 0.100000
vn 0.000000 0.000000 0.100000
vn 0.000000 0.000000 0.100000
vn 0.000000 0.100000 0.000000
vn 0.000000 0.100000 0.000000
vn 0.000000 0.100000 0.000000
usemtl 191,191,191
f 1/1/1 2/2/2 3/3/3
f 3/4/4 2/5/5 4/6/6
f 1/7/7 3/8/8 4/9/9
f 2/10/10 1/11/11 4/12/12

# 4 vertices
# 12 texture params
# 12 normals
# 4 facets

# 1 groups
