# WaveFront *.obj file (generated by Autodesk ATF)

mtllib 1x2 pyrimid flat base.mtl

g Solid1

v 0.000000 0.000000 0.000000
v 250.000000 250.000000 -500.000000
v 250.000000 0.000000 0.000000
v 250.000000 250.000000 0.000000
v 0.000000 250.000000 0.000000
vt -0.000000 25.000000 0.000000
vt -55.901699 0.000000 0.000000
vt -0.000000 0.000000 0.000000
vt -25.000000 -12.500000 0.000000
vt 25.000000 12.500000 0.000000
vt -25.000000 12.500000 0.000000
vt -0.000000 0.000000 0.000000
vt -55.901699 25.000000 0.000000
vt -55.901699 0.000000 0.000000
vt 0.000000 25.000000 0.000000
vt 50.000000 0.000000 0.000000
vt 50.000000 25.000000 0.000000
vt 0.000000 0.000000 0.000000
vt 25.000000 0.000000 0.000000
vt 0.000000 25.000000 0.000000
vt 25.000000 25.000000 0.000000
vn 0.000000 -0.089443 -0.044721
vn 0.000000 -0.089443 -0.044721
vn 0.000000 -0.089443 -0.044721
vn 0.100000 0.000000 0.000000
vn 0.100000 0.000000 0.000000
vn 0.100000 0.000000 0.000000
vn -0.089443 0.000000 -0.044721
vn -0.089443 0.000000 -0.044721
vn -0.089443 0.000000 -0.044721
vn 0.000000 0.100000 0.000000
vn 0.000000 0.100000 0.000000
vn 0.000000 0.100000 0.000000
vn 0.000000 0.000000 0.100000
vn 0.000000 0.000000 0.100000
vn 0.000000 0.000000 0.100000
vn 0.000000 0.000000 0.100000
usemtl 191,191,191
f 1/1/1 2/2/2 3/3/3
f 3/4/4 2/5/5 4/6/6
f 2/7/7 1/8/8 5/9/9
f 2/10/10 5/11/11 4/12/12
f 5/13/13 1/14/14 4/15/15
f 4/15/15 1/14/14 3/16/16

# 5 vertices
# 16 texture params
# 16 normals
# 6 facets

# 1 groups
