# WaveFront *.obj file (generated by Autodesk ATF)

mtllib 1x3 pyrimid.mtl

g Solid1

v 0.583333 0.000000 -748.250000
v 0.583333 0.583333 -748.250000
v 0.000000 0.000000 -748.250000
v 250.000000 250.000000 0.000000
v 0.000000 0.000000 0.000000
v 0.000000 0.000000 -750.000000
v 0.000000 250.000000 0.000000
vt -16.102832 -8.838835 0.000000
vt -16.102832 -8.780501 0.000000
vt -16.161165 -8.838835 0.000000
vt -35.355339 0.000000 0.000000
vt -0.000000 0.000000 0.000000
vt -0.082496 74.825000 0.000000
vt -0.000000 74.825000 0.000000
vt -78.872475 24.941667 0.000000
vt -78.872475 25.000000 0.000000
vt -79.056942 25.000000 0.000000
vt 25.000000 0.000000 0.000000
vt -0.000000 25.000000 0.000000
vt -0.000000 0.000000 0.000000
vt -79.056942 0.000000 0.000000
vt -0.184466 24.941667 0.000000
vt -79.056942 25.000000 0.000000
vt -0.000000 25.000000 0.000000
vt 74.825000 0.058333 0.000000
vt 74.825000 0.000000 0.000000
vt 75.000000 0.000000 0.000000
vt -37.500000 -12.500000 0.000000
vt -37.325000 -12.500000 0.000000
vt 37.500000 12.500000 0.000000
vt 37.500000 -12.500000 0.000000
vn 0.000000 0.000000 0.100000
vn 0.000000 0.000000 0.100000
vn 0.000000 0.000000 0.100000
vn 0.070711 -0.070711 0.000000
vn 0.070711 -0.070711 0.000000
vn 0.070711 -0.070711 0.000000
vn 0.070711 -0.070711 0.000000
vn 0.094868 0.000000 -0.031623
vn 0.094868 0.000000 -0.031623
vn 0.094868 0.000000 -0.031623
vn 0.000000 0.000000 0.100000
vn 0.000000 0.000000 0.100000
vn 0.000000 0.000000 0.100000
vn -0.000000 0.094868 -0.031623
vn -0.000000 0.094868 -0.031623
vn -0.000000 0.094868 -0.031623
vn -0.000000 0.094868 -0.031623
vn 0.000000 -0.100000 0.000000
vn 0.000000 -0.100000 0.000000
vn 0.000000 -0.100000 0.000000
vn -0.100000 0.000000 0.000000
vn -0.100000 0.000000 0.000000
vn -0.100000 0.000000 0.000000
vn -0.100000 0.000000 0.000000
usemtl 191,191,191
f 1/1/1 2/2/2 3/3/3
f 4/4/4 5/5/5 2/6/6
f 2/6/6 5/5/5 3/7/7
f 2/8/8 1/9/9 6/10/10
f 5/11/11 4/12/12 7/13/13
f 4/14/14 2/15/15 7/16/16
f 7/16/16 2/15/15 6/17/17
f 1/18/18 3/19/19 6/20/20
f 6/21/21 3/22/22 7/23/23
f 7/23/23 3/22/22 5/24/24

# 7 vertices
# 24 texture params
# 24 normals
# 10 facets

# 1 groups
