# WaveFront *.obj file (generated by Autodesk ATF)

mtllib 1x4 pyrimid.mtl

g Solid1

v 250.000000 0.000000 -1000.000000
v 0.000000 0.000000 0.000000
v 250.000000 250.000000 0.000000
v 250.000000 0.000000 0.000000
vt 0.000000 0.000000 0.000000
vt 103.077641 0.000000 0.000000
vt 97.014250 34.831527 0.000000
vt -0.000000 25.000000 0.000000
vt 25.000000 0.000000 0.000000
vt 25.000000 25.000000 0.000000
vt -0.000000 0.000000 0.000000
vt 100.000000 25.000000 0.000000
vt -0.000000 25.000000 0.000000
vt 50.000000 -12.500000 0.000000
vt -50.000000 12.500000 0.000000
vt -50.000000 -12.500000 0.000000
vn -0.069631 0.069631 -0.017408
vn -0.069631 0.069631 -0.017408
vn -0.069631 0.069631 -0.017408
vn 0.000000 0.000000 0.100000
vn 0.000000 0.000000 0.100000
vn 0.000000 0.000000 0.100000
vn 0.000000 -0.100000 0.000000
vn 0.000000 -0.100000 0.000000
vn 0.000000 -0.100000 0.000000
vn 0.100000 0.000000 0.000000
vn 0.100000 0.000000 0.000000
vn 0.100000 0.000000 0.000000
usemtl 191,191,191
f 1/1/1 2/2/2 3/3/3
f 3/4/4 2/5/5 4/6/6
f 2/7/7 1/8/8 4/9/9
f 1/10/10 3/11/11 4/12/12

# 4 vertices
# 12 texture params
# 12 normals
# 4 facets

# 1 groups
