# WaveFront *.obj file (generated by Autodesk ATF)

mtllib 1x4 inv pryimid.mtl

g Solid1

v 0.000000 250.000000 0.000000
v 250.000000 250.000000 -1000.000000
v 0.000000 0.000000 -1000.000000
v 250.000000 0.000000 -1000.000000
v 250.000000 250.000000 0.000000
v 0.000000 0.000000 0.000000
v 250.000000 0.000000 0.000000
vt 0.000000 0.000000 0.000000
vt -103.077641 0.000000 0.000000
vt -97.014250 -34.831527 0.000000
vt 0.000000 0.000000 0.000000
vt 25.000000 25.000000 0.000000
vt 0.000000 25.000000 0.000000
vt 0.000000 25.000000 0.000000
vt 100.000000 0.000000 0.000000
vt 100.000000 25.000000 0.000000
vt -0.000000 0.000000 0.000000
vt 100.000000 0.000000 0.000000
vt -0.000000 25.000000 0.000000
vt 100.000000 25.000000 0.000000
vt -0.000000 0.000000 0.000000
vt 25.000000 0.000000 0.000000
vt -0.000000 25.000000 0.000000
vt 25.000000 25.000000 0.000000
vt 50.000000 12.500000 0.000000
vt -50.000000 -12.500000 0.000000
vt 50.000000 -12.500000 0.000000
vt -50.000000 -12.500000 0.000000
vt 50.000000 -12.500000 0.000000
vt -50.000000 12.500000 0.000000
vt 50.000000 12.500000 0.000000
vn -0.069631 0.069631 -0.017408
vn -0.069631 0.069631 -0.017408
vn -0.069631 0.069631 -0.017408
vn 0.000000 0.000000 -0.100000
vn 0.000000 0.000000 -0.100000
vn 0.000000 0.000000 -0.100000
vn 0.000000 0.100000 0.000000
vn 0.000000 0.100000 0.000000
vn 0.000000 0.100000 0.000000
vn 0.000000 -0.100000 0.000000
vn 0.000000 -0.100000 0.000000
vn 0.000000 -0.100000 0.000000
vn 0.000000 -0.100000 0.000000
vn 0.000000 0.000000 0.100000
vn 0.000000 0.000000 0.100000
vn 0.000000 0.000000 0.100000
vn 0.000000 0.000000 0.100000
vn -0.100000 0.000000 0.000000
vn -0.100000 0.000000 0.000000
vn -0.100000 0.000000 0.000000
vn 0.100000 0.000000 0.000000
vn 0.100000 0.000000 0.000000
vn 0.100000 0.000000 0.000000
vn 0.100000 0.000000 0.000000
usemtl 191,191,191
f 1/1/1 2/2/2 3/3/3
f 3/4/4 2/5/5 4/6/6
f 2/7/7 1/8/8 5/9/9
f 6/10/10 3/11/11 7/12/12
f 7/12/12 3/11/11 4/13/13
f 1/14/14 6/15/15 5/16/16
f 5/16/16 6/15/15 7/17/17
f 1/18/18 3/19/19 6/20/20
f 7/21/21 4/22/22 5/23/23
f 5/23/23 4/22/22 2/24/24

# 7 vertices
# 24 texture params
# 24 normals
# 10 facets

# 1 groups
