# WaveFront *.obj file (generated by Autodesk ATF)

mtllib 1x1 pyrimid.mtl

g Solid1

v 0.000000 0.250000 -0.250000
v 0.000000 0.000000 0.000000
v 0.250000 0.000000 -0.250000
v 0.000000 0.000000 -0.250000
vt 0.000000 0.000000 0.000000
vt -17.677670 -30.618622 0.000000
vt 17.677670 -30.618622 0.000000
vt 12.500000 -12.500000 0.000000
vt -12.500000 12.500000 0.000000
vt -12.500000 -12.500000 0.000000
vt 25.000000 0.000000 0.000000
vt 0.000000 25.000000 0.000000
vt 0.000000 0.000000 0.000000
vt 25.000000 25.000000 0.000000
vt -0.000000 0.000000 0.000000
vt 25.000000 0.000000 0.000000
vn 57.735027 57.735027 57.735027
vn 57.735027 57.735027 57.735027
vn 57.735027 57.735027 57.735027
vn -100.000000 0.000000 0.000000
vn -100.000000 0.000000 0.000000
vn -100.000000 0.000000 0.000000
vn 0.000000 0.000000 -100.000000
vn 0.000000 0.000000 -100.000000
vn 0.000000 0.000000 -100.000000
vn 0.000000 -100.000000 0.000000
vn 0.000000 -100.000000 0.000000
vn 0.000000 -100.000000 0.000000
usemtl 191,191,191
f 1/1/1 2/2/2 3/3/3
f 2/4/4 1/5/5 4/6/6
f 1/7/7 3/8/8 4/9/9
f 3/10/10 2/11/11 4/12/12

# 4 vertices
# 12 texture params
# 12 normals
# 4 facets

# 1 groups
