# WaveFront *.obj file (generated by Autodesk ATF)

mtllib 1x2 pyrimid flat base.mtl

g Solid1

v 0.250000 0.000000 -0.500000
v 0.000000 0.250000 0.000000
v 0.250000 0.250000 0.000000
v 0.000000 0.000000 0.000000
v 0.250000 0.000000 0.000000
vt -0.000000 0.000000 0.000000
vt -55.901699 25.000000 0.000000
vt -55.901699 0.000000 0.000000
vt -0.000000 25.000000 0.000000
vt -55.901699 0.000000 0.000000
vt -0.000000 0.000000 0.000000
vt 50.000000 25.000000 0.000000
vt -0.000000 25.000000 0.000000
vt -0.000000 0.000000 0.000000
vt 25.000000 0.000000 0.000000
vt -0.000000 25.000000 0.000000
vt 25.000000 25.000000 0.000000
vt 25.000000 -12.500000 0.000000
vt -25.000000 12.500000 0.000000
vt -25.000000 -12.500000 0.000000
vn -0.000000 89.442719 -44.721360
vn -0.000000 89.442719 -44.721360
vn -0.000000 89.442719 -44.721360
vn -89.442719 0.000000 -44.721360
vn -89.442719 0.000000 -44.721360
vn -89.442719 0.000000 -44.721360
vn 0.000000 -100.000000 0.000000
vn 0.000000 -100.000000 0.000000
vn 0.000000 -100.000000 0.000000
vn 0.000000 0.000000 100.000000
vn 0.000000 0.000000 100.000000
vn 0.000000 0.000000 100.000000
vn 0.000000 0.000000 100.000000
vn 100.000000 0.000000 0.000000
vn 100.000000 0.000000 0.000000
vn 100.000000 0.000000 0.000000
usemtl 191,191,191
f 1/1/1 2/2/2 3/3/3
f 2/4/4 1/5/5 4/6/6
f 4/6/7 1/7/8 5/8/9
f 2/9/10 4/10/11 3/11/12
f 3/11/12 4/10/11 5/12/13
f 1/13/14 3/14/15 5/15/16

# 5 vertices
# 15 texture params
# 16 normals
# 6 facets

# 1 groups
