# WaveFront *.obj file (generated by Autodesk ATF)

mtllib 1x3 inv pyrimid.mtl

g Solid1

v 0.250000 0.000000 0.000000
v 0.250000 0.250000 -0.759000
v 0.000000 0.250000 0.000000
v 0.000000 0.000000 0.000000
v 0.000000 0.250000 -0.759000
v 0.000000 0.000000 -0.759000
v 0.250000 0.000000 -0.759000
vt 0.000000 0.000000 0.000000
vt 72.090088 34.479403 0.000000
vt -7.821175 34.479403 0.000000
vt 25.000000 25.000000 0.000000
vt -0.000000 0.000000 0.000000
vt 25.000000 0.000000 0.000000
vt 75.900000 0.000000 0.000000
vt 0.000000 25.000000 0.000000
vt 0.000000 0.000000 0.000000
vt 0.000000 0.000000 0.000000
vt 25.000000 0.000000 0.000000
vt 0.000000 25.000000 0.000000
vt 25.000000 25.000000 0.000000
vt -0.000000 0.000000 0.000000
vt 75.900000 0.000000 0.000000
vt -0.000000 25.000000 0.000000
vt 75.900000 25.000000 0.000000
vt 37.950000 12.500000 0.000000
vt -37.950000 12.500000 0.000000
vt 37.950000 -12.500000 0.000000
vt -37.950000 -12.500000 0.000000
vt 37.950000 12.500000 0.000000
vt -37.950000 -12.500000 0.000000
vt 37.950000 -12.500000 0.000000
vn 68.867458 68.867458 22.683616
vn 68.867458 68.867458 22.683616
vn 68.867458 68.867458 22.683616
vn 0.000000 0.000000 100.000000
vn 0.000000 0.000000 100.000000
vn 0.000000 0.000000 100.000000
vn 0.000000 100.000000 0.000000
vn 0.000000 100.000000 0.000000
vn 0.000000 100.000000 0.000000
vn 0.000000 0.000000 -100.000000
vn 0.000000 0.000000 -100.000000
vn 0.000000 0.000000 -100.000000
vn 0.000000 0.000000 -100.000000
vn 0.000000 -100.000000 0.000000
vn 0.000000 -100.000000 0.000000
vn 0.000000 -100.000000 0.000000
vn 0.000000 -100.000000 0.000000
vn -100.000000 0.000000 0.000000
vn -100.000000 0.000000 0.000000
vn -100.000000 0.000000 0.000000
vn -100.000000 0.000000 0.000000
vn 100.000000 0.000000 0.000000
vn 100.000000 0.000000 0.000000
vn 100.000000 0.000000 0.000000
usemtl 191,191,191
f 1/1/1 2/2/2 3/3/3
f 1/4/4 3/5/5 4/6/6
f 3/7/7 2/8/8 5/9/9
f 6/10/10 5/11/11 7/12/12
f 7/12/12 5/11/11 2/13/13
f 4/14/14 6/15/15 1/16/16
f 1/16/16 6/15/15 7/17/17
f 3/18/18 5/19/19 4/20/20
f 4/20/20 5/19/19 6/21/21
f 2/22/22 1/23/23 7/24/24

# 7 vertices
# 24 texture params
# 24 normals
# 10 facets

# 1 groups
