# WaveFront *.obj file (generated by Autodesk ATF)

mtllib 1x3 wedge.mtl

g Solid1

v 0.250000 0.250000 -0.759000
v 0.000000 0.250000 0.000000
v 0.000000 0.000000 0.000000
v 0.250000 0.000000 -0.759000
v 0.000000 0.250000 -0.759000
v 0.000000 0.000000 -0.759000
vt -79.911263 0.000000 0.000000
vt -0.000000 0.000000 0.000000
vt -79.911263 25.000000 0.000000
vt -0.000000 25.000000 0.000000
vt 75.900000 0.000000 0.000000
vt 0.000000 25.000000 0.000000
vt 0.000000 0.000000 0.000000
vt 0.000000 0.000000 0.000000
vt 25.000000 0.000000 0.000000
vt 0.000000 25.000000 0.000000
vt 25.000000 25.000000 0.000000
vt 75.900000 25.000000 0.000000
vt -0.000000 0.000000 0.000000
vt 75.900000 0.000000 0.000000
vt 37.950000 12.500000 0.000000
vt -37.950000 12.500000 0.000000
vt 37.950000 -12.500000 0.000000
vt -37.950000 -12.500000 0.000000
vn 94.980353 0.000000 31.284701
vn 94.980353 0.000000 31.284701
vn 94.980353 0.000000 31.284701
vn 94.980353 0.000000 31.284701
vn 0.000000 100.000000 0.000000
vn 0.000000 100.000000 0.000000
vn 0.000000 100.000000 0.000000
vn 0.000000 0.000000 -100.000000
vn 0.000000 0.000000 -100.000000
vn 0.000000 0.000000 -100.000000
vn 0.000000 0.000000 -100.000000
vn 0.000000 -100.000000 0.000000
vn 0.000000 -100.000000 0.000000
vn 0.000000 -100.000000 0.000000
vn -100.000000 0.000000 0.000000
vn -100.000000 0.000000 0.000000
vn -100.000000 0.000000 0.000000
vn -100.000000 0.000000 0.000000
usemtl 191,191,191
f 1/1/1 2/2/2 4/3/3
f 4/3/3 2/2/2 3/4/4
f 2/5/5 1/6/6 5/7/7
f 6/8/8 5/9/9 4/10/10
f 4/10/10 5/9/9 1/11/11
f 4/12/12 3/13/13 6/14/14
f 2/15/15 5/16/16 3/17/17
f 3/17/17 5/16/16 6/18/18

# 6 vertices
# 18 texture params
# 18 normals
# 8 facets

# 1 groups
