# WaveFront *.obj file (generated by Autodesk ATF)

mtllib 1x4 wedge.mtl

g Solid1

v 0.250000 0.250000 0.000000
v 0.250000 0.000000 -1.000000
v 0.000000 0.000000 -1.000000
v 0.000000 0.250000 0.000000
v 0.000000 0.000000 0.000000
v 0.250000 0.000000 0.000000
vt -103.077641 0.000000 0.000000
vt -0.000000 0.000000 0.000000
vt -103.077641 25.000000 0.000000
vt -0.000000 25.000000 0.000000
vt 50.000000 12.500000 0.000000
vt -50.000000 -12.500000 0.000000
vt 50.000000 -12.500000 0.000000
vt 50.000000 -12.500000 0.000000
vt -50.000000 12.500000 0.000000
vt -50.000000 -12.500000 0.000000
vt -0.000000 0.000000 0.000000
vt 100.000000 0.000000 0.000000
vt -0.000000 25.000000 0.000000
vt 100.000000 25.000000 0.000000
vt -0.000000 0.000000 0.000000
vt 25.000000 0.000000 0.000000
vt -0.000000 25.000000 0.000000
vt 25.000000 25.000000 0.000000
vn -0.000000 97.014250 -24.253563
vn -0.000000 97.014250 -24.253563
vn -0.000000 97.014250 -24.253563
vn -0.000000 97.014250 -24.253563
vn -100.000000 0.000000 0.000000
vn -100.000000 0.000000 0.000000
vn -100.000000 0.000000 0.000000
vn 100.000000 0.000000 0.000000
vn 100.000000 0.000000 0.000000
vn 100.000000 0.000000 0.000000
vn 0.000000 -100.000000 0.000000
vn 0.000000 -100.000000 0.000000
vn 0.000000 -100.000000 0.000000
vn 0.000000 -100.000000 0.000000
vn 0.000000 0.000000 100.000000
vn 0.000000 0.000000 100.000000
vn 0.000000 0.000000 100.000000
vn 0.000000 0.000000 100.000000
usemtl 191,191,191
f 1/1/1 2/2/2 4/3/3
f 4/3/3 2/2/2 3/4/4
f 4/5/5 3/6/6 5/7/7
f 2/8/8 1/9/9 6/10/10
f 5/11/11 3/12/12 6/13/13
f 6/13/13 3/12/12 2/14/14
f 4/15/15 5/16/16 1/17/17
f 1/17/17 5/16/16 6/18/18

# 6 vertices
# 18 texture params
# 18 normals
# 8 facets

# 1 groups
