# WaveFront *.obj file (generated by Autodesk ATF)

mtllib 1x4 pyrimid flat base.mtl

g Solid1

v 0.000000 0.250000 0.000000
v 0.250000 0.000000 -1.000000
v 0.000000 0.000000 0.000000
v 0.250000 0.250000 0.000000
v 0.250000 0.000000 0.000000
vt -0.000000 25.000000 0.000000
vt -103.077641 0.000000 0.000000
vt -0.000000 0.000000 0.000000
vt -0.000000 0.000000 0.000000
vt -103.077641 25.000000 0.000000
vt -103.077641 0.000000 0.000000
vt 50.000000 -12.500000 0.000000
vt -50.000000 12.500000 0.000000
vt -50.000000 -12.500000 0.000000
vt -0.000000 0.000000 0.000000
vt 100.000000 25.000000 0.000000
vt -0.000000 25.000000 0.000000
vt -0.000000 0.000000 0.000000
vt 25.000000 0.000000 0.000000
vt -0.000000 25.000000 0.000000
vt 25.000000 25.000000 0.000000
vn -97.014250 0.000000 -24.253563
vn -97.014250 0.000000 -24.253563
vn -97.014250 0.000000 -24.253563
vn -0.000000 97.014250 -24.253563
vn -0.000000 97.014250 -24.253563
vn -0.000000 97.014250 -24.253563
vn 100.000000 0.000000 0.000000
vn 100.000000 0.000000 0.000000
vn 100.000000 0.000000 0.000000
vn 0.000000 -100.000000 0.000000
vn 0.000000 -100.000000 0.000000
vn 0.000000 -100.000000 0.000000
vn 0.000000 0.000000 100.000000
vn 0.000000 0.000000 100.000000
vn 0.000000 0.000000 100.000000
vn 0.000000 0.000000 100.000000
usemtl 191,191,191
f 1/1/1 2/2/2 3/3/3
f 2/4/4 1/5/5 4/6/6
f 2/7/7 4/8/8 5/9/9
f 3/10/10 2/11/11 5/12/12
f 1/13/13 3/14/14 4/15/15
f 4/15/15 3/14/14 5/16/16

# 5 vertices
# 16 texture params
# 16 normals
# 6 facets

# 1 groups
